G75*
G70*
%OFA0B0*%
%FSLAX24Y24*%
%IPPOS*%
%LPD*%
%AMOC8*
5,1,8,0,0,1.08239X$1,22.5*
%
%ADD10C,0.0080*%
%ADD11R,0.1000X0.0200*%
%ADD12C,0.0120*%
D10*
X000280Y000911D02*
X000280Y013307D01*
X017850Y013307D01*
X017850Y000911D01*
X000280Y000911D01*
X004182Y004651D02*
X004322Y004651D01*
X004252Y004651D02*
X004252Y005071D01*
X004182Y005071D02*
X004322Y005071D01*
X004489Y005001D02*
X004489Y004721D01*
X004559Y004651D01*
X004699Y004651D01*
X004769Y004721D01*
X004950Y004651D02*
X005230Y004651D01*
X005090Y004651D02*
X005090Y005071D01*
X004950Y004931D01*
X004769Y005001D02*
X004699Y005071D01*
X004559Y005071D01*
X004489Y005001D01*
X004528Y005701D02*
X004248Y005701D01*
X004528Y005981D01*
X004528Y006051D01*
X004458Y006121D01*
X004318Y006121D01*
X004248Y006051D01*
X004068Y006051D02*
X003998Y006121D01*
X003857Y006121D01*
X003787Y006051D01*
X003787Y005771D01*
X003857Y005701D01*
X003998Y005701D01*
X004068Y005771D01*
X004068Y005911D01*
X003927Y005911D01*
X003621Y005701D02*
X003480Y005701D01*
X003550Y005701D02*
X003550Y006121D01*
X003480Y006121D02*
X003621Y006121D01*
X003300Y006051D02*
X003230Y006121D01*
X003090Y006121D01*
X003020Y006051D01*
X003020Y005981D01*
X003090Y005911D01*
X003230Y005911D01*
X003300Y005841D01*
X003300Y005771D01*
X003230Y005701D01*
X003090Y005701D01*
X003020Y005771D01*
X002880Y005661D02*
X002630Y005411D01*
X002130Y005411D01*
X001880Y005661D01*
X001880Y006161D01*
X002130Y006411D01*
X002630Y006411D01*
X002880Y006161D01*
X002880Y005661D01*
X003035Y006836D02*
X003035Y007156D01*
X003195Y007156D01*
X003249Y007103D01*
X003249Y006996D01*
X003195Y006943D01*
X003035Y006943D01*
X003142Y006943D02*
X003249Y006836D01*
X003403Y006996D02*
X003617Y006996D01*
X003563Y006836D02*
X003563Y007156D01*
X003403Y006996D01*
X002880Y007661D02*
X002630Y007411D01*
X002130Y007411D01*
X001880Y007661D01*
X001880Y008161D01*
X002130Y008411D01*
X002630Y008411D01*
X002880Y008161D01*
X002880Y007661D01*
X003020Y007771D02*
X003090Y007701D01*
X003230Y007701D01*
X003300Y007771D01*
X003300Y007841D01*
X003230Y007911D01*
X003090Y007911D01*
X003020Y007981D01*
X003020Y008051D01*
X003090Y008121D01*
X003230Y008121D01*
X003300Y008051D01*
X003480Y008121D02*
X003621Y008121D01*
X003550Y008121D02*
X003550Y007701D01*
X003480Y007701D02*
X003621Y007701D01*
X003787Y007771D02*
X003857Y007701D01*
X003998Y007701D01*
X004068Y007771D01*
X004068Y007911D01*
X003927Y007911D01*
X003787Y008051D02*
X003787Y007771D01*
X003787Y008051D02*
X003857Y008121D01*
X003998Y008121D01*
X004068Y008051D01*
X004248Y007981D02*
X004388Y008121D01*
X004388Y007701D01*
X004248Y007701D02*
X004528Y007701D01*
X005700Y008091D02*
X005700Y005671D01*
X005840Y005531D01*
X008260Y005531D01*
X008260Y008091D01*
X005700Y008091D01*
X003662Y008864D02*
X003608Y008811D01*
X003502Y008811D01*
X003448Y008864D01*
X003555Y008971D02*
X003608Y008971D01*
X003662Y008918D01*
X003662Y008864D01*
X003608Y008971D02*
X003662Y009024D01*
X003662Y009078D01*
X003608Y009131D01*
X003502Y009131D01*
X003448Y009078D01*
X003294Y009078D02*
X003294Y008971D01*
X003240Y008918D01*
X003080Y008918D01*
X003187Y008918D02*
X003294Y008811D01*
X003080Y008811D02*
X003080Y009131D01*
X003240Y009131D01*
X003294Y009078D01*
X003780Y010311D02*
X006780Y010311D01*
X006780Y012311D01*
X003780Y012311D01*
X003780Y010311D01*
X004135Y012681D02*
X004135Y012961D01*
X004275Y013101D01*
X004415Y012961D01*
X004415Y012681D01*
X004415Y012891D02*
X004135Y012891D01*
X004595Y012821D02*
X004736Y012681D01*
X004876Y012821D01*
X004876Y013101D01*
X005056Y013101D02*
X005266Y013101D01*
X005336Y013031D01*
X005336Y012891D01*
X005266Y012821D01*
X005056Y012821D01*
X005196Y012821D02*
X005336Y012681D01*
X005516Y012681D02*
X005656Y012681D01*
X005586Y012681D02*
X005586Y013101D01*
X005516Y013101D02*
X005656Y013101D01*
X005823Y013031D02*
X005823Y012961D01*
X005893Y012891D01*
X006033Y012891D01*
X006103Y012821D01*
X006103Y012751D01*
X006033Y012681D01*
X005893Y012681D01*
X005823Y012751D01*
X005823Y013031D02*
X005893Y013101D01*
X006033Y013101D01*
X006103Y013031D01*
X006283Y013101D02*
X006494Y013101D01*
X006564Y013031D01*
X006564Y012891D01*
X006494Y012821D01*
X006283Y012821D01*
X006283Y012681D02*
X006283Y013101D01*
X005056Y013101D02*
X005056Y012681D01*
X004595Y012821D02*
X004595Y013101D01*
X007273Y011816D02*
X007273Y011496D01*
X007273Y011603D02*
X007434Y011603D01*
X007487Y011656D01*
X007487Y011763D01*
X007434Y011816D01*
X007273Y011816D01*
X007380Y011603D02*
X007487Y011496D01*
X007642Y011549D02*
X007695Y011496D01*
X007802Y011496D01*
X007855Y011549D01*
X007855Y011656D01*
X007802Y011709D01*
X007748Y011709D01*
X007642Y011656D01*
X007642Y011816D01*
X007855Y011816D01*
X008680Y011661D02*
X008680Y012161D01*
X008930Y012411D01*
X009430Y012411D01*
X009680Y012161D01*
X009930Y012411D01*
X010430Y012411D01*
X010680Y012161D01*
X010930Y012411D01*
X011430Y012411D01*
X011680Y012161D01*
X011680Y011661D01*
X011430Y011411D01*
X010930Y011411D01*
X010680Y011661D01*
X010430Y011411D01*
X009930Y011411D01*
X009680Y011661D01*
X009430Y011411D01*
X008930Y011411D01*
X008680Y011661D01*
X008973Y011196D02*
X008920Y011143D01*
X008920Y010983D01*
X009240Y010983D01*
X009240Y011143D01*
X009187Y011196D01*
X008973Y011196D01*
X008920Y010828D02*
X009240Y010828D01*
X008920Y010614D01*
X009240Y010614D01*
X009187Y010459D02*
X009080Y010459D01*
X009080Y010353D01*
X009187Y010459D02*
X009240Y010406D01*
X009240Y010299D01*
X009187Y010246D01*
X008973Y010246D01*
X008920Y010299D01*
X008920Y010406D01*
X008973Y010459D01*
X009228Y009888D02*
X009175Y009834D01*
X009175Y009728D01*
X009228Y009674D01*
X009228Y009519D02*
X009175Y009466D01*
X009175Y009359D01*
X009228Y009306D01*
X009442Y009306D01*
X009495Y009359D01*
X009495Y009466D01*
X009442Y009519D01*
X009495Y009674D02*
X009281Y009888D01*
X009228Y009888D01*
X009495Y009888D02*
X009495Y009674D01*
X010020Y010246D02*
X010020Y010406D01*
X010073Y010459D01*
X010180Y010459D01*
X010233Y010406D01*
X010233Y010246D01*
X010233Y010353D02*
X010340Y010459D01*
X010340Y010614D02*
X010020Y010828D01*
X010020Y010614D02*
X010340Y010828D01*
X010180Y010983D02*
X010340Y011196D01*
X010180Y010983D02*
X010020Y011196D01*
X009680Y011661D02*
X009680Y012161D01*
X009761Y012701D02*
X009480Y012701D01*
X009480Y013121D01*
X009761Y013121D01*
X009941Y013121D02*
X010151Y013121D01*
X010221Y013051D01*
X010221Y012911D01*
X010151Y012841D01*
X009941Y012841D01*
X010081Y012841D02*
X010221Y012701D01*
X010401Y012701D02*
X010541Y012701D01*
X010471Y012701D02*
X010471Y013121D01*
X010401Y013121D02*
X010541Y013121D01*
X010708Y012981D02*
X010848Y013121D01*
X010988Y012981D01*
X010988Y012701D01*
X011168Y012701D02*
X011449Y012701D01*
X011168Y012701D02*
X011168Y013121D01*
X010988Y012911D02*
X010708Y012911D01*
X010708Y012981D02*
X010708Y012701D01*
X010680Y012161D02*
X010680Y011661D01*
X011180Y011196D02*
X011340Y010983D01*
X011340Y010828D02*
X011020Y010614D01*
X011020Y010459D02*
X011020Y010246D01*
X011020Y010353D02*
X011340Y010353D01*
X011340Y010614D02*
X011020Y010828D01*
X011020Y010983D02*
X011180Y011196D01*
X011680Y011661D02*
X011930Y011411D01*
X012430Y011411D01*
X012680Y011661D01*
X012930Y011411D01*
X013430Y011411D01*
X013680Y011661D01*
X013680Y012161D01*
X013430Y012411D01*
X012930Y012411D01*
X012680Y012161D01*
X012680Y011661D01*
X012680Y012161D02*
X012430Y012411D01*
X011930Y012411D01*
X011680Y012161D01*
X011920Y012701D02*
X011920Y013121D01*
X012130Y013121D01*
X012200Y013051D01*
X012200Y012911D01*
X012130Y012841D01*
X011920Y012841D01*
X012380Y012701D02*
X012521Y012841D01*
X012661Y012701D01*
X012661Y013121D01*
X012841Y013121D02*
X013051Y013121D01*
X013121Y013051D01*
X013121Y012911D01*
X013051Y012841D01*
X012841Y012841D01*
X012981Y012841D02*
X013121Y012701D01*
X012841Y012701D02*
X012841Y013121D01*
X012380Y013121D02*
X012380Y012701D01*
X014050Y011861D02*
X014050Y011561D01*
X015190Y011561D01*
X015190Y011861D01*
X014050Y011861D01*
X013337Y011196D02*
X013123Y011196D01*
X013070Y011143D01*
X013070Y010983D01*
X013390Y010983D01*
X013390Y011143D01*
X013337Y011196D01*
X013390Y010828D02*
X013070Y010828D01*
X013070Y010614D02*
X013390Y010828D01*
X013390Y010614D02*
X013070Y010614D01*
X013123Y010459D02*
X013070Y010406D01*
X013070Y010299D01*
X013123Y010246D01*
X013337Y010246D01*
X013390Y010299D01*
X013390Y010406D01*
X013337Y010459D01*
X013230Y010459D01*
X013230Y010353D01*
X012390Y010668D02*
X012337Y010614D01*
X012390Y010668D02*
X012390Y010774D01*
X012337Y010828D01*
X012230Y010828D01*
X012176Y010774D01*
X012176Y010721D01*
X012230Y010614D01*
X012070Y010614D01*
X012070Y010828D01*
X012070Y010983D02*
X012283Y010983D01*
X012390Y011089D01*
X012283Y011196D01*
X012070Y011196D01*
X011673Y009833D02*
X011620Y009833D01*
X011620Y009619D01*
X011673Y009464D02*
X011780Y009464D01*
X011833Y009411D01*
X011833Y009251D01*
X011833Y009358D02*
X011940Y009464D01*
X011940Y009619D02*
X011887Y009619D01*
X011673Y009833D01*
X011345Y009778D02*
X011345Y009671D01*
X011292Y009618D01*
X011238Y009618D01*
X011185Y009671D01*
X011185Y009778D01*
X011238Y009831D01*
X011292Y009831D01*
X011345Y009778D01*
X011185Y009778D02*
X011131Y009831D01*
X011078Y009831D01*
X011025Y009778D01*
X011025Y009671D01*
X011078Y009618D01*
X011131Y009618D01*
X011185Y009671D01*
X011185Y009463D02*
X011238Y009409D01*
X011238Y009249D01*
X011238Y009356D02*
X011345Y009463D01*
X011185Y009463D02*
X011078Y009463D01*
X011025Y009409D01*
X011025Y009249D01*
X011345Y009249D01*
X011620Y009251D02*
X011620Y009411D01*
X011673Y009464D01*
X011620Y009251D02*
X011940Y009251D01*
X010680Y008011D02*
X010680Y007161D01*
X010710Y007159D01*
X010740Y007154D01*
X010769Y007145D01*
X010796Y007132D01*
X010822Y007117D01*
X010846Y007098D01*
X010867Y007077D01*
X010886Y007053D01*
X010901Y007027D01*
X010914Y007000D01*
X010923Y006971D01*
X010928Y006941D01*
X010930Y006911D01*
X010928Y006881D01*
X010923Y006851D01*
X010914Y006822D01*
X010901Y006795D01*
X010886Y006769D01*
X010867Y006745D01*
X010846Y006724D01*
X010822Y006705D01*
X010796Y006690D01*
X010769Y006677D01*
X010740Y006668D01*
X010710Y006663D01*
X010680Y006661D01*
X010680Y005911D01*
X009790Y005401D02*
X009790Y005190D01*
X009370Y005190D01*
X009370Y005401D01*
X009440Y005471D01*
X009720Y005471D01*
X009790Y005401D01*
X009720Y005010D02*
X009440Y005010D01*
X009370Y004940D01*
X009370Y004730D01*
X009790Y004730D01*
X009790Y004940D01*
X009720Y005010D01*
X009720Y004550D02*
X009440Y004550D01*
X009370Y004480D01*
X009370Y004340D01*
X009440Y004270D01*
X009720Y004270D01*
X009790Y004340D01*
X009790Y004480D01*
X009720Y004550D01*
X009370Y004090D02*
X009370Y003809D01*
X009790Y003809D01*
X009580Y003809D02*
X009580Y003949D01*
X010020Y003801D02*
X010020Y003521D01*
X010090Y003451D01*
X010230Y003451D01*
X010300Y003521D01*
X010480Y003521D02*
X010550Y003451D01*
X010691Y003451D01*
X010761Y003521D01*
X010761Y003591D01*
X010691Y003661D01*
X010621Y003661D01*
X010691Y003661D02*
X010761Y003731D01*
X010761Y003801D01*
X010691Y003871D01*
X010550Y003871D01*
X010480Y003801D01*
X010300Y003801D02*
X010230Y003871D01*
X010090Y003871D01*
X010020Y003801D01*
X010941Y003801D02*
X010941Y003521D01*
X011221Y003801D01*
X011221Y003521D01*
X011151Y003451D01*
X011011Y003451D01*
X010941Y003521D01*
X010941Y003801D02*
X011011Y003871D01*
X011151Y003871D01*
X011221Y003801D01*
X011401Y003801D02*
X011401Y003731D01*
X011471Y003661D01*
X011611Y003661D01*
X011681Y003591D01*
X011681Y003521D01*
X011611Y003451D01*
X011471Y003451D01*
X011401Y003521D01*
X011401Y003591D01*
X011471Y003661D01*
X011611Y003661D02*
X011681Y003731D01*
X011681Y003801D01*
X011611Y003871D01*
X011471Y003871D01*
X011401Y003801D01*
X011862Y003801D02*
X011862Y003731D01*
X011932Y003661D01*
X012072Y003661D01*
X012142Y003591D01*
X012142Y003521D01*
X012072Y003451D01*
X011932Y003451D01*
X011862Y003521D01*
X011862Y003591D01*
X011932Y003661D01*
X012072Y003661D02*
X012142Y003731D01*
X012142Y003801D01*
X012072Y003871D01*
X011932Y003871D01*
X011862Y003801D01*
X012782Y003801D02*
X012782Y003521D01*
X012852Y003451D01*
X012993Y003451D01*
X013063Y003521D01*
X013063Y003801D01*
X012993Y003871D01*
X012852Y003871D01*
X012782Y003801D01*
X013243Y003871D02*
X013243Y003591D01*
X013383Y003451D01*
X013523Y003591D01*
X013523Y003871D01*
X013703Y003661D02*
X013913Y003661D01*
X013983Y003591D01*
X013983Y003521D01*
X013913Y003451D01*
X013773Y003451D01*
X013703Y003521D01*
X013703Y003661D01*
X013843Y003801D01*
X013983Y003871D01*
X014164Y003661D02*
X014374Y003661D01*
X014444Y003591D01*
X014444Y003521D01*
X014374Y003451D01*
X014234Y003451D01*
X014164Y003521D01*
X014164Y003661D01*
X014304Y003801D01*
X014444Y003871D01*
X014624Y003801D02*
X014694Y003871D01*
X014834Y003871D01*
X014904Y003801D01*
X014904Y003731D01*
X014624Y003451D01*
X014904Y003451D01*
X015084Y003521D02*
X015365Y003801D01*
X015365Y003521D01*
X015294Y003451D01*
X015154Y003451D01*
X015084Y003521D01*
X015084Y003801D01*
X015154Y003871D01*
X015294Y003871D01*
X015365Y003801D01*
X014680Y005911D02*
X014680Y008011D01*
X014900Y007271D02*
X014830Y007201D01*
X014830Y007061D01*
X014900Y006990D01*
X014900Y006810D02*
X014830Y006740D01*
X014830Y006600D01*
X014900Y006530D01*
X015180Y006530D01*
X015250Y006600D01*
X015250Y006740D01*
X015180Y006810D01*
X015250Y006990D02*
X014970Y007271D01*
X014900Y007271D01*
X015250Y007271D02*
X015250Y006990D01*
X015250Y006363D02*
X015250Y006223D01*
X015250Y006293D02*
X014830Y006293D01*
X014830Y006223D02*
X014830Y006363D01*
X013540Y006539D02*
X013220Y006539D01*
X013220Y006699D01*
X013273Y006753D01*
X013380Y006753D01*
X013433Y006699D01*
X013433Y006539D01*
X013433Y006646D02*
X013540Y006753D01*
X013487Y006908D02*
X013380Y006908D01*
X013380Y007068D01*
X013433Y007121D01*
X013487Y007121D01*
X013540Y007068D01*
X013540Y006961D01*
X013487Y006908D01*
X013380Y006908D02*
X013273Y007014D01*
X013220Y007121D01*
X009505Y008031D02*
X009185Y008031D01*
X009185Y008191D01*
X009238Y008244D01*
X009345Y008244D01*
X009398Y008191D01*
X009398Y008031D01*
X009398Y008138D02*
X009505Y008244D01*
X009452Y008399D02*
X009505Y008453D01*
X009505Y008559D01*
X009452Y008613D01*
X009238Y008613D01*
X009185Y008559D01*
X009185Y008453D01*
X009238Y008399D01*
X009291Y008399D01*
X009345Y008453D01*
X009345Y008613D01*
X007452Y009861D02*
X007238Y009861D01*
X007398Y010021D01*
X007398Y009701D01*
X007084Y009754D02*
X007030Y009701D01*
X006923Y009701D01*
X006870Y009754D01*
X006870Y009968D01*
X006923Y010021D01*
X007030Y010021D01*
X007084Y009968D01*
X010020Y010246D02*
X010340Y010246D01*
X009941Y012701D02*
X009941Y013121D01*
X009621Y012911D02*
X009480Y012911D01*
X009300Y012841D02*
X009300Y012771D01*
X009230Y012701D01*
X009090Y012701D01*
X009020Y012771D01*
X009090Y012911D02*
X009230Y012911D01*
X009300Y012841D01*
X009300Y013051D02*
X009230Y013121D01*
X009090Y013121D01*
X009020Y013051D01*
X009020Y012981D01*
X009090Y012911D01*
X014015Y010864D02*
X014015Y010758D01*
X014068Y010704D01*
X014068Y010549D02*
X014175Y010549D01*
X014228Y010496D01*
X014228Y010336D01*
X014228Y010443D02*
X014335Y010549D01*
X014335Y010704D02*
X014121Y010918D01*
X014068Y010918D01*
X014015Y010864D01*
X014335Y010918D02*
X014335Y010704D01*
X014068Y010549D02*
X014015Y010496D01*
X014015Y010336D01*
X014335Y010336D01*
X014840Y010414D02*
X014893Y010361D01*
X015107Y010361D01*
X015160Y010414D01*
X015160Y010521D01*
X015107Y010574D01*
X015160Y010729D02*
X015160Y010943D01*
X015160Y010836D02*
X014840Y010836D01*
X014946Y010729D01*
X014893Y010574D02*
X014840Y010521D01*
X014840Y010414D01*
X014871Y012601D02*
X014871Y013021D01*
X014730Y012881D01*
X014550Y012951D02*
X014550Y012671D01*
X014480Y012601D01*
X014340Y012601D01*
X014270Y012671D01*
X014270Y012951D01*
X014340Y013021D01*
X014480Y013021D01*
X014550Y012951D01*
X014410Y012741D02*
X014550Y012601D01*
X014730Y012601D02*
X015011Y012601D01*
X005859Y005831D02*
X005861Y005854D01*
X005867Y005877D01*
X005876Y005898D01*
X005889Y005918D01*
X005905Y005935D01*
X005923Y005949D01*
X005943Y005960D01*
X005965Y005968D01*
X005988Y005972D01*
X006012Y005972D01*
X006035Y005968D01*
X006057Y005960D01*
X006077Y005949D01*
X006095Y005935D01*
X006111Y005918D01*
X006124Y005898D01*
X006133Y005877D01*
X006139Y005854D01*
X006141Y005831D01*
X006139Y005808D01*
X006133Y005785D01*
X006124Y005764D01*
X006111Y005744D01*
X006095Y005727D01*
X006077Y005713D01*
X006057Y005702D01*
X006035Y005694D01*
X006012Y005690D01*
X005988Y005690D01*
X005965Y005694D01*
X005943Y005702D01*
X005923Y005713D01*
X005905Y005727D01*
X005889Y005744D01*
X005876Y005764D01*
X005867Y005785D01*
X005861Y005808D01*
X005859Y005831D01*
X008286Y004426D02*
X008286Y003796D01*
X008287Y003796D02*
X008292Y003780D01*
X008300Y003764D01*
X008310Y003750D01*
X008322Y003738D01*
X008337Y003728D01*
X008353Y003721D01*
X008370Y003717D01*
X008387Y003716D01*
X008405Y003718D01*
X008955Y003718D02*
X008973Y003716D01*
X008990Y003717D01*
X009007Y003721D01*
X009023Y003728D01*
X009038Y003738D01*
X009050Y003750D01*
X009060Y003764D01*
X009068Y003780D01*
X009073Y003796D01*
X009074Y003796D02*
X009074Y004426D01*
X009073Y004426D02*
X009067Y004444D01*
X009058Y004462D01*
X009046Y004477D01*
X009030Y004489D01*
X009013Y004498D01*
X008994Y004504D01*
X008975Y004506D01*
X008955Y004504D01*
X008405Y004504D02*
X008385Y004506D01*
X008366Y004504D01*
X008347Y004498D01*
X008330Y004489D01*
X008314Y004477D01*
X008302Y004462D01*
X008293Y004444D01*
X008287Y004426D01*
X007662Y003621D02*
X007555Y003621D01*
X007502Y003568D01*
X007608Y003461D02*
X007662Y003461D01*
X007715Y003408D01*
X007715Y003354D01*
X007662Y003301D01*
X007555Y003301D01*
X007502Y003354D01*
X007347Y003354D02*
X007294Y003301D01*
X007187Y003301D01*
X007133Y003354D01*
X007133Y003568D01*
X007187Y003621D01*
X007294Y003621D01*
X007347Y003568D01*
X007662Y003621D02*
X007715Y003568D01*
X007715Y003514D01*
X007662Y003461D01*
X006415Y003301D02*
X006202Y003301D01*
X006308Y003301D02*
X006308Y003621D01*
X006202Y003514D01*
X006047Y003461D02*
X005994Y003408D01*
X005833Y003408D01*
X005940Y003408D02*
X006047Y003301D01*
X006047Y003461D02*
X006047Y003568D01*
X005994Y003621D01*
X005833Y003621D01*
X005833Y003301D01*
D11*
X005280Y012411D03*
D12*
X001180Y007611D02*
X000780Y007611D01*
X000780Y006211D02*
X001180Y006211D01*
M02*
