G75*
G70*
%OFA0B0*%
%FSLAX24Y24*%
%IPPOS*%
%LPD*%
%AMOC8*
5,1,8,0,0,1.08239X$1,22.5*
%
%ADD10R,0.0220X0.0500*%
%ADD11R,0.0500X0.0220*%
%ADD12R,0.0472X0.0472*%
%ADD13R,0.0394X0.0433*%
%ADD14R,0.0433X0.0394*%
%ADD15R,0.0310X0.0350*%
D10*
X005878Y005121D03*
X006193Y005121D03*
X006508Y005121D03*
X006823Y005121D03*
X007137Y005121D03*
X007452Y005121D03*
X007767Y005121D03*
X008082Y005121D03*
X008082Y008501D03*
X007767Y008501D03*
X007452Y008501D03*
X007137Y008501D03*
X006823Y008501D03*
X006508Y008501D03*
X006193Y008501D03*
X005878Y008501D03*
D11*
X005290Y007913D03*
X005290Y007598D03*
X005290Y007283D03*
X005290Y006968D03*
X005290Y006653D03*
X005290Y006338D03*
X005290Y006023D03*
X005290Y005708D03*
X008670Y005708D03*
X008670Y006023D03*
X008670Y006338D03*
X008670Y006653D03*
X008670Y006968D03*
X008670Y007283D03*
X008670Y007598D03*
X008670Y007913D03*
D12*
X000980Y008124D03*
X000980Y007297D03*
X000980Y006524D03*
X000980Y005697D03*
D13*
X005845Y004111D03*
X006515Y004111D03*
X002540Y007006D03*
X001870Y007006D03*
X002945Y009611D03*
X003615Y009611D03*
X007345Y012306D03*
X008015Y012306D03*
X009980Y009946D03*
X009980Y009276D03*
X015080Y009276D03*
X015080Y009946D03*
D14*
X014180Y009946D03*
X014180Y009276D03*
X012380Y009276D03*
X012380Y009946D03*
X010580Y009946D03*
X010580Y009276D03*
X009980Y008646D03*
X009980Y007976D03*
X007615Y009211D03*
X006945Y009211D03*
X012680Y007246D03*
X012680Y006576D03*
X007815Y004111D03*
X007145Y004111D03*
D15*
X014240Y011311D03*
X015000Y011311D03*
X014620Y012111D03*
M02*
