G75*
G70*
%OFA0B0*%
%FSLAX24Y24*%
%IPPOS*%
%LPD*%
%AMOC8*
5,1,8,0,0,1.08239X$1,22.5*
%
%ADD10C,0.0100*%
%ADD11C,0.0080*%
%ADD12C,0.0060*%
%ADD13C,0.0237*%
%ADD14C,0.0158*%
%ADD15C,0.0316*%
D10*
X014839Y006659D02*
X015243Y006618D01*
X015269Y006526D01*
X015305Y006439D01*
X015351Y006355D01*
X015095Y006041D01*
X015310Y005826D01*
X015625Y006082D01*
X015687Y006047D01*
X015751Y006017D01*
X015931Y006450D01*
X015872Y006480D01*
X015820Y006520D01*
X015775Y006567D01*
X015738Y006622D01*
X015711Y006682D01*
X015695Y006745D01*
X015711Y006682D01*
X015738Y006622D01*
X015775Y006567D01*
X015820Y006520D01*
X015872Y006480D01*
X015931Y006450D01*
X015751Y006017D01*
X015687Y006047D01*
X015625Y006082D01*
X015310Y005826D01*
X015095Y006041D01*
X015351Y006355D01*
X015305Y006439D01*
X015269Y006526D01*
X015243Y006618D01*
X014839Y006659D01*
X014839Y006963D01*
X015243Y007004D01*
X015269Y007095D01*
X015305Y007183D01*
X015351Y007266D01*
X015095Y007580D01*
X015310Y007796D01*
X015625Y007540D01*
X015708Y007585D01*
X015795Y007622D01*
X015887Y007648D01*
X015928Y008052D01*
X016232Y008052D01*
X016273Y007648D01*
X016365Y007622D01*
X016452Y007585D01*
X016535Y007540D01*
X016850Y007796D01*
X017065Y007580D01*
X016809Y007266D01*
X016855Y007183D01*
X016891Y007095D01*
X016917Y007004D01*
X017321Y006963D01*
X017321Y006659D01*
X016917Y006618D01*
X016891Y006526D01*
X016855Y006439D01*
X016809Y006355D01*
X017065Y006041D01*
X016850Y005826D01*
X016535Y006082D01*
X016473Y006047D01*
X016409Y006017D01*
X016229Y006450D01*
X016294Y006484D01*
X016351Y006530D01*
X016399Y006586D01*
X016436Y006649D01*
X016460Y006718D01*
X016470Y006791D01*
X016467Y006864D01*
X016450Y006935D01*
X016420Y007002D01*
X016379Y007063D01*
X016327Y007114D01*
X016266Y007155D01*
X016198Y007183D01*
X016127Y007199D01*
X016053Y007201D01*
X015981Y007189D01*
X015912Y007164D01*
X015849Y007126D01*
X015795Y007077D01*
X015750Y007019D01*
X015717Y006954D01*
X015696Y006884D01*
X015689Y006811D01*
X015695Y006745D01*
X015689Y006811D01*
X015696Y006884D01*
X015717Y006954D01*
X015750Y007019D01*
X015795Y007077D01*
X015849Y007126D01*
X015912Y007164D01*
X015981Y007189D01*
X016053Y007201D01*
X016127Y007199D01*
X016198Y007183D01*
X016266Y007155D01*
X016327Y007114D01*
X016379Y007063D01*
X016420Y007002D01*
X016450Y006935D01*
X016467Y006864D01*
X016470Y006791D01*
X016460Y006718D01*
X016436Y006649D01*
X016399Y006586D01*
X016351Y006530D01*
X016294Y006484D01*
X016229Y006450D01*
X016409Y006017D01*
X016473Y006047D01*
X016535Y006082D01*
X016850Y005826D01*
X017065Y006041D01*
X016809Y006355D01*
X016855Y006439D01*
X016891Y006526D01*
X016917Y006618D01*
X017321Y006659D01*
X017321Y006963D01*
X016917Y007004D01*
X016891Y007095D01*
X016855Y007183D01*
X016809Y007266D01*
X017065Y007580D01*
X016850Y007796D01*
X016535Y007540D01*
X016452Y007585D01*
X016365Y007622D01*
X016273Y007648D01*
X016232Y008052D01*
X015928Y008052D01*
X015887Y007648D01*
X015795Y007622D01*
X015708Y007585D01*
X015625Y007540D01*
X015310Y007796D01*
X015095Y007580D01*
X015351Y007266D01*
X015305Y007183D01*
X015269Y007095D01*
X015243Y007004D01*
X014839Y006963D01*
X014839Y006659D01*
X014839Y006722D02*
X015701Y006722D01*
X014839Y006722D01*
X014839Y006821D02*
X015690Y006821D01*
X014839Y006821D01*
X014839Y006919D02*
X015707Y006919D01*
X014839Y006919D01*
X015247Y007018D02*
X015749Y007018D01*
X015247Y007018D01*
X015278Y007116D02*
X015838Y007116D01*
X015278Y007116D01*
X015323Y007215D02*
X016837Y007215D01*
X015323Y007215D01*
X015313Y007313D02*
X016847Y007313D01*
X015313Y007313D01*
X015232Y007412D02*
X016928Y007412D01*
X015232Y007412D01*
X015152Y007510D02*
X017008Y007510D01*
X015152Y007510D01*
X015123Y007609D02*
X015540Y007609D01*
X015123Y007609D01*
X015222Y007707D02*
X015419Y007707D01*
X015222Y007707D01*
X015764Y007609D02*
X016396Y007609D01*
X015764Y007609D01*
X015893Y007707D02*
X016267Y007707D01*
X015893Y007707D01*
X015903Y007806D02*
X016257Y007806D01*
X015903Y007806D01*
X015913Y007904D02*
X016247Y007904D01*
X015913Y007904D01*
X015923Y008003D02*
X016237Y008003D01*
X015923Y008003D01*
X016620Y007609D02*
X017037Y007609D01*
X016620Y007609D01*
X016741Y007707D02*
X016938Y007707D01*
X016741Y007707D01*
X016882Y007116D02*
X016323Y007116D01*
X016882Y007116D01*
X016913Y007018D02*
X016410Y007018D01*
X016913Y007018D01*
X017321Y006919D02*
X016454Y006919D01*
X017321Y006919D01*
X017321Y006821D02*
X016469Y006821D01*
X017321Y006821D01*
X017321Y006722D02*
X016460Y006722D01*
X017321Y006722D01*
X016980Y006624D02*
X016421Y006624D01*
X016980Y006624D01*
X016891Y006525D02*
X016346Y006525D01*
X016891Y006525D01*
X016848Y006427D02*
X016239Y006427D01*
X016848Y006427D01*
X016831Y006328D02*
X016280Y006328D01*
X016831Y006328D01*
X016911Y006230D02*
X016321Y006230D01*
X016911Y006230D01*
X016992Y006131D02*
X016361Y006131D01*
X016992Y006131D01*
X017057Y006033D02*
X016596Y006033D01*
X017057Y006033D01*
X016958Y005934D02*
X016717Y005934D01*
X016958Y005934D01*
X016860Y005836D02*
X016837Y005836D01*
X016860Y005836D01*
X016443Y006033D02*
X016402Y006033D01*
X016443Y006033D01*
X015839Y006230D02*
X015249Y006230D01*
X015839Y006230D01*
X015799Y006131D02*
X015168Y006131D01*
X015799Y006131D01*
X015758Y006033D02*
X015717Y006033D01*
X015758Y006033D01*
X015564Y006033D02*
X015103Y006033D01*
X015564Y006033D01*
X015443Y005934D02*
X015202Y005934D01*
X015443Y005934D01*
X015323Y005836D02*
X015300Y005836D01*
X015323Y005836D01*
X015329Y006328D02*
X015880Y006328D01*
X015329Y006328D01*
X015312Y006427D02*
X015921Y006427D01*
X015312Y006427D01*
X015269Y006525D02*
X015814Y006525D01*
X015269Y006525D01*
X015180Y006624D02*
X015737Y006624D01*
X015180Y006624D01*
D11*
X000280Y000911D02*
X000280Y013307D01*
X017850Y013307D01*
X017850Y000911D01*
X000280Y000911D01*
X000420Y001340D02*
X000700Y001621D01*
X000770Y001621D01*
X000840Y001551D01*
X000840Y001411D01*
X000770Y001340D01*
X001080Y001311D02*
X001080Y002311D01*
X002080Y002311D01*
X002080Y003311D01*
X017080Y003311D01*
X017080Y001311D01*
X001080Y001311D01*
X000420Y001340D02*
X000420Y001621D01*
X001080Y002311D02*
X001080Y003311D01*
X002080Y003311D01*
X000840Y002731D02*
X000420Y002731D01*
X000420Y002871D02*
X000420Y002590D01*
X000700Y002590D02*
X000840Y002731D01*
X006649Y004171D02*
X006649Y004241D01*
X006719Y004311D01*
X006930Y004311D01*
X006930Y004171D01*
X006860Y004101D01*
X006719Y004101D01*
X006649Y004171D01*
X006789Y004451D02*
X006930Y004311D01*
X006789Y004451D02*
X006649Y004521D01*
X007110Y004451D02*
X007180Y004521D01*
X007320Y004521D01*
X007390Y004451D01*
X007390Y004171D01*
X007320Y004101D01*
X007180Y004101D01*
X007110Y004171D01*
X009189Y004027D02*
X009189Y005995D01*
X009780Y005286D02*
X009780Y005168D01*
X009563Y005168D01*
X009544Y005070D02*
X009544Y004952D01*
X010016Y004952D01*
X010016Y005070D01*
X009544Y005070D01*
X009780Y005168D02*
X009997Y005168D01*
X009997Y004853D02*
X009780Y004853D01*
X009780Y004716D01*
X009780Y004853D02*
X009563Y004853D01*
X010529Y004491D02*
X010529Y004210D01*
X010809Y004491D01*
X010879Y004491D01*
X010949Y004421D01*
X010949Y004281D01*
X010879Y004210D01*
X010879Y004030D02*
X010599Y004030D01*
X010529Y003960D01*
X010529Y003820D01*
X010599Y003750D01*
X010879Y003750D01*
X010949Y003820D01*
X010949Y003960D01*
X010879Y004030D01*
X010669Y003890D02*
X010529Y004030D01*
X010371Y004027D02*
X010371Y005995D01*
X011370Y006471D02*
X011370Y006611D01*
X011440Y006681D01*
X011510Y006681D01*
X011650Y006611D01*
X011650Y006821D01*
X011370Y006821D01*
X011370Y006471D02*
X011440Y006401D01*
X011580Y006401D01*
X011650Y006471D01*
X011831Y006471D02*
X011901Y006401D01*
X012041Y006401D01*
X012111Y006471D01*
X012111Y006751D01*
X012041Y006821D01*
X011901Y006821D01*
X011831Y006751D01*
X009812Y009111D02*
X009742Y009111D01*
X009672Y009181D01*
X009672Y009531D01*
X009882Y009531D01*
X009952Y009461D01*
X009952Y009321D01*
X009882Y009251D01*
X009672Y009251D01*
X009492Y009251D02*
X009492Y009671D01*
X009422Y009531D02*
X009282Y009531D01*
X009212Y009461D01*
X009212Y009251D01*
X008962Y009321D02*
X008892Y009251D01*
X008962Y009321D02*
X008962Y009601D01*
X009032Y009531D02*
X008892Y009531D01*
X008725Y009461D02*
X008655Y009531D01*
X008444Y009531D01*
X008515Y009391D02*
X008655Y009391D01*
X008725Y009461D01*
X008725Y009251D02*
X008515Y009251D01*
X008444Y009321D01*
X008515Y009391D01*
X008264Y009321D02*
X008264Y009251D01*
X008194Y009251D01*
X008194Y009321D01*
X008264Y009321D01*
X008034Y009321D02*
X008034Y009461D01*
X007964Y009531D01*
X007754Y009531D01*
X007574Y009461D02*
X007574Y009321D01*
X007504Y009251D01*
X007364Y009251D01*
X007293Y009321D01*
X007293Y009461D01*
X007364Y009531D01*
X007504Y009531D01*
X007574Y009461D01*
X007754Y009251D02*
X007964Y009251D01*
X008034Y009321D01*
X008184Y010051D02*
X008391Y010051D01*
X008495Y010154D01*
X008081Y010568D01*
X008081Y010154D01*
X008184Y010051D01*
X008495Y010154D02*
X008495Y010568D01*
X008391Y010671D01*
X008184Y010671D01*
X008081Y010568D01*
X007850Y010154D02*
X007747Y010154D01*
X007747Y010051D01*
X007850Y010051D01*
X007850Y010154D01*
X007528Y010051D02*
X007114Y010051D01*
X007321Y010051D02*
X007321Y010671D01*
X007528Y010465D01*
X006744Y009716D02*
X006703Y009689D01*
X006660Y009665D01*
X006615Y009645D01*
X006570Y009628D01*
X006523Y009615D01*
X006475Y009605D01*
X006426Y009599D01*
X006378Y009596D01*
X006329Y009597D01*
X006280Y009602D01*
X006232Y009610D01*
X006185Y009622D01*
X006138Y009637D01*
X006093Y009656D01*
X006050Y009678D01*
X006008Y009704D01*
X005968Y009732D01*
X005931Y009763D01*
X005896Y009797D01*
X005863Y009834D01*
X005834Y009872D01*
X005807Y009913D01*
X005783Y009956D01*
X005763Y010001D01*
X005746Y010046D01*
X005733Y010093D01*
X005723Y010141D01*
X005717Y010190D01*
X005875Y008294D02*
X005792Y008267D01*
X005708Y008243D01*
X005623Y008223D01*
X005537Y008208D01*
X005450Y008196D01*
X005363Y008189D01*
X005276Y008186D01*
X005188Y008187D01*
X005101Y008192D01*
X005014Y008202D01*
X004928Y008215D01*
X004927Y008216D02*
X005006Y008058D01*
X004691Y007821D02*
X004691Y008611D01*
X004138Y008533D02*
X004176Y008535D01*
X004214Y008534D01*
X004252Y008528D01*
X004289Y008519D01*
X004326Y008506D01*
X004360Y008490D01*
X004393Y008470D01*
X004423Y008447D01*
X004451Y008420D01*
X004476Y008392D01*
X004498Y008360D01*
X004517Y008327D01*
X004533Y008292D01*
X004544Y008256D01*
X004552Y008218D01*
X004556Y008180D01*
X004557Y008142D01*
X004553Y008104D01*
X004545Y008066D01*
X004534Y008030D01*
X004519Y007995D01*
X004501Y007961D01*
X004479Y007930D01*
X004454Y007900D01*
X004691Y007821D02*
X006269Y007821D01*
X006269Y008611D01*
X005875Y008295D02*
X005717Y008058D01*
X004691Y008611D02*
X004693Y008665D01*
X004698Y008718D01*
X004708Y008772D01*
X004720Y008824D01*
X004737Y008875D01*
X004756Y008925D01*
X004779Y008974D01*
X004806Y009021D01*
X004835Y009066D01*
X004868Y009109D01*
X004903Y009150D01*
X004941Y009188D01*
X004982Y009223D01*
X005025Y009256D01*
X005070Y009285D01*
X005117Y009312D01*
X005166Y009335D01*
X005216Y009354D01*
X005267Y009371D01*
X005319Y009383D01*
X005373Y009393D01*
X005426Y009398D01*
X005480Y009400D01*
X005480Y009479D01*
X005717Y008058D02*
X005647Y008041D01*
X005577Y008028D01*
X005506Y008019D01*
X005434Y008013D01*
X005362Y008011D01*
X005290Y008013D01*
X005218Y008019D01*
X005147Y008028D01*
X005077Y008041D01*
X005007Y008058D01*
X006269Y008611D02*
X006267Y008665D01*
X006262Y008718D01*
X006252Y008772D01*
X006240Y008824D01*
X006223Y008875D01*
X006204Y008925D01*
X006181Y008974D01*
X006154Y009021D01*
X006125Y009066D01*
X006092Y009109D01*
X006057Y009150D01*
X006019Y009188D01*
X005978Y009223D01*
X005935Y009256D01*
X005890Y009285D01*
X005843Y009312D01*
X005794Y009335D01*
X005744Y009354D01*
X005693Y009371D01*
X005641Y009383D01*
X005587Y009393D01*
X005534Y009398D01*
X005480Y009400D01*
X005717Y008058D02*
X005647Y008041D01*
X005577Y008028D01*
X005506Y008019D01*
X005434Y008013D01*
X005362Y008011D01*
X005290Y008013D01*
X005218Y008019D01*
X005147Y008028D01*
X005077Y008041D01*
X005007Y008058D01*
X004691Y008611D02*
X004693Y008665D01*
X004698Y008718D01*
X004708Y008772D01*
X004720Y008824D01*
X004737Y008875D01*
X004756Y008925D01*
X004779Y008974D01*
X004806Y009021D01*
X004835Y009066D01*
X004868Y009109D01*
X004903Y009150D01*
X004941Y009188D01*
X004982Y009223D01*
X005025Y009256D01*
X005070Y009285D01*
X005117Y009312D01*
X005166Y009335D01*
X005216Y009354D01*
X005267Y009371D01*
X005319Y009383D01*
X005373Y009393D01*
X005426Y009398D01*
X005480Y009400D01*
X005875Y008294D02*
X005792Y008267D01*
X005708Y008243D01*
X005623Y008223D01*
X005537Y008208D01*
X005450Y008196D01*
X005363Y008189D01*
X005276Y008186D01*
X005188Y008187D01*
X005101Y008192D01*
X005014Y008202D01*
X004928Y008215D01*
X005480Y009400D02*
X005534Y009398D01*
X005587Y009393D01*
X005641Y009383D01*
X005693Y009371D01*
X005744Y009354D01*
X005794Y009335D01*
X005843Y009312D01*
X005890Y009285D01*
X005935Y009256D01*
X005978Y009223D01*
X006019Y009188D01*
X006057Y009150D01*
X006092Y009109D01*
X006125Y009066D01*
X006154Y009021D01*
X006181Y008974D01*
X006204Y008925D01*
X006223Y008875D01*
X006240Y008824D01*
X006252Y008772D01*
X006262Y008718D01*
X006267Y008665D01*
X006269Y008611D01*
X006901Y008690D02*
X006858Y008691D01*
X006815Y008688D01*
X006772Y008681D01*
X006731Y008671D01*
X006690Y008657D01*
X006650Y008640D01*
X006613Y008619D01*
X006577Y008595D01*
X006544Y008568D01*
X006513Y008539D01*
X006484Y008506D01*
X006459Y008471D01*
X006437Y008435D01*
X006418Y008396D01*
X006402Y008356D01*
X006390Y008315D01*
X006382Y008272D01*
X006377Y008230D01*
X006376Y008187D01*
X006379Y008144D01*
X006386Y008101D01*
X006396Y008060D01*
X006410Y008019D01*
X006427Y007979D01*
X006410Y008019D01*
X006396Y008060D01*
X006386Y008101D01*
X006379Y008144D01*
X006376Y008187D01*
X006377Y008230D01*
X006382Y008272D01*
X006390Y008315D01*
X006402Y008356D01*
X006418Y008396D01*
X006437Y008435D01*
X006459Y008471D01*
X006484Y008506D01*
X006513Y008539D01*
X006544Y008568D01*
X006577Y008595D01*
X006613Y008619D01*
X006650Y008640D01*
X006690Y008657D01*
X006731Y008671D01*
X006772Y008681D01*
X006815Y008688D01*
X006858Y008691D01*
X006901Y008690D01*
X006856Y008701D01*
X006812Y008715D01*
X006769Y008734D01*
X006728Y008756D01*
X006689Y008781D01*
X006652Y008810D01*
X006618Y008841D01*
X006586Y008876D01*
X006558Y008912D01*
X006532Y008952D01*
X006510Y008993D01*
X006492Y009035D01*
X006477Y009080D01*
X006466Y009125D01*
X006459Y009171D01*
X006456Y009217D01*
X006457Y009264D01*
X006462Y009310D01*
X006470Y009356D01*
X006482Y009401D01*
X006499Y009445D01*
X006518Y009487D01*
X006542Y009527D01*
X006568Y009566D01*
X006598Y009602D01*
X006630Y009635D01*
X006665Y009665D01*
X006703Y009693D01*
X006743Y009717D01*
X006903Y009531D02*
X006833Y009461D01*
X006833Y009251D01*
X006973Y009251D02*
X006973Y009461D01*
X006903Y009531D01*
X006973Y009461D02*
X007043Y009531D01*
X007113Y009531D01*
X007113Y009251D01*
X006743Y009717D02*
X006703Y009693D01*
X006665Y009665D01*
X006630Y009635D01*
X006598Y009602D01*
X006568Y009566D01*
X006542Y009527D01*
X006518Y009487D01*
X006499Y009445D01*
X006482Y009401D01*
X006470Y009356D01*
X006462Y009310D01*
X006457Y009264D01*
X006456Y009217D01*
X006459Y009171D01*
X006466Y009125D01*
X006477Y009080D01*
X006492Y009035D01*
X006510Y008993D01*
X006532Y008952D01*
X006558Y008912D01*
X006586Y008876D01*
X006618Y008841D01*
X006652Y008810D01*
X006689Y008781D01*
X006728Y008756D01*
X006769Y008734D01*
X006812Y008715D01*
X006856Y008701D01*
X006901Y008690D01*
X008725Y010051D02*
X008932Y010258D01*
X008829Y010258D02*
X009139Y010258D01*
X009139Y010051D02*
X009139Y010671D01*
X008829Y010671D01*
X008725Y010568D01*
X008725Y010361D01*
X008829Y010258D01*
X009422Y009531D02*
X009492Y009461D01*
X010133Y009531D02*
X010133Y009251D01*
X010343Y009251D01*
X010413Y009321D01*
X010413Y009531D01*
X010593Y009461D02*
X010593Y009321D01*
X010663Y009251D01*
X010803Y009251D01*
X010873Y009321D01*
X010873Y009461D01*
X010803Y009531D01*
X010663Y009531D01*
X010593Y009461D01*
X011053Y009461D02*
X011053Y009251D01*
X011053Y009461D02*
X011123Y009531D01*
X011264Y009531D01*
X011334Y009461D01*
X011500Y009531D02*
X011641Y009531D01*
X011570Y009601D02*
X011570Y009321D01*
X011500Y009251D01*
X011334Y009251D02*
X011334Y009671D01*
X011304Y010051D02*
X011304Y010361D01*
X011407Y010465D01*
X011510Y010361D01*
X011510Y010051D01*
X011717Y010051D02*
X011717Y010465D01*
X011614Y010465D01*
X011510Y010361D01*
X011948Y010361D02*
X011948Y010051D01*
X012258Y010051D01*
X012362Y010154D01*
X012258Y010258D01*
X011948Y010258D01*
X011948Y010361D02*
X012052Y010465D01*
X012258Y010465D01*
X012593Y010465D02*
X012903Y010465D01*
X013006Y010361D01*
X013006Y010154D01*
X012903Y010051D01*
X012593Y010051D01*
X012338Y009601D02*
X012338Y009321D01*
X012268Y009251D01*
X012101Y009461D02*
X011821Y009461D01*
X012268Y009531D02*
X012408Y009531D01*
X012588Y009461D02*
X012588Y009321D01*
X012658Y009251D01*
X012798Y009251D01*
X012868Y009321D01*
X012868Y009461D01*
X012798Y009531D01*
X012658Y009531D01*
X012588Y009461D01*
X013048Y009461D02*
X013048Y009321D01*
X013118Y009251D01*
X013329Y009251D01*
X013329Y009671D01*
X013329Y009531D02*
X013118Y009531D01*
X013048Y009461D01*
X013489Y009321D02*
X013489Y009251D01*
X013559Y009251D01*
X013559Y009321D01*
X013489Y009321D01*
X013739Y009321D02*
X013739Y009531D01*
X013739Y009321D02*
X013809Y009251D01*
X013879Y009321D01*
X013949Y009251D01*
X014019Y009321D01*
X014019Y009531D01*
X014199Y009531D02*
X014199Y009321D01*
X014269Y009251D01*
X014339Y009321D01*
X014410Y009251D01*
X014480Y009321D01*
X014480Y009531D01*
X014660Y009531D02*
X014660Y009321D01*
X014730Y009251D01*
X014800Y009321D01*
X014870Y009251D01*
X014940Y009321D01*
X014940Y009531D01*
X014940Y010051D02*
X014940Y010465D01*
X014733Y010671D01*
X014526Y010465D01*
X014526Y010051D01*
X014295Y010258D02*
X014089Y010051D01*
X013882Y010258D01*
X013882Y010671D01*
X013651Y010671D02*
X013341Y010671D01*
X013237Y010568D01*
X013237Y010361D01*
X013341Y010258D01*
X013651Y010258D01*
X013444Y010258D02*
X013237Y010051D01*
X013651Y010051D02*
X013651Y010671D01*
X014295Y010671D02*
X014295Y010258D01*
X014526Y010361D02*
X014940Y010361D01*
X011073Y010361D02*
X010762Y010361D01*
X010659Y010258D01*
X010659Y010154D01*
X010762Y010051D01*
X011073Y010051D01*
X011073Y010671D01*
X010762Y010671D01*
X010659Y010568D01*
X010659Y010465D01*
X010762Y010361D01*
X010428Y010671D02*
X010014Y010671D01*
X010221Y010671D02*
X010221Y010051D01*
X006744Y009716D02*
X006703Y009689D01*
X006660Y009665D01*
X006615Y009645D01*
X006570Y009628D01*
X006523Y009615D01*
X006475Y009605D01*
X006426Y009599D01*
X006378Y009596D01*
X006329Y009597D01*
X006280Y009602D01*
X006232Y009610D01*
X006185Y009622D01*
X006138Y009637D01*
X006093Y009656D01*
X006050Y009678D01*
X006008Y009704D01*
X005968Y009732D01*
X005931Y009763D01*
X005896Y009797D01*
X005863Y009834D01*
X005834Y009872D01*
X005807Y009913D01*
X005783Y009956D01*
X005763Y010001D01*
X005746Y010046D01*
X005733Y010093D01*
X005723Y010141D01*
X005717Y010190D01*
X005698Y010145D01*
X005675Y010103D01*
X005649Y010062D01*
X005620Y010024D01*
X005587Y009988D01*
X005552Y009955D01*
X005514Y009924D01*
X005474Y009897D01*
X005432Y009873D01*
X005389Y009853D01*
X005343Y009836D01*
X005297Y009823D01*
X005249Y009814D01*
X005201Y009809D01*
X005153Y009807D01*
X005105Y009809D01*
X005057Y009816D01*
X005009Y009826D01*
X004963Y009840D01*
X004918Y009857D01*
X004875Y009878D01*
X004833Y009903D01*
X004794Y009930D01*
X004756Y009961D01*
X004722Y009995D01*
X004690Y010031D01*
X004691Y010032D02*
X004712Y009994D01*
X004730Y009955D01*
X004744Y009914D01*
X004755Y009872D01*
X004761Y009829D01*
X004764Y009785D01*
X004763Y009742D01*
X004758Y009699D01*
X004749Y009657D01*
X004736Y009615D01*
X004719Y009575D01*
X004699Y009537D01*
X004676Y009500D01*
X004649Y009466D01*
X004620Y009434D01*
X004587Y009406D01*
X004553Y009380D01*
X004516Y009357D01*
X004477Y009338D01*
X004436Y009323D01*
X004395Y009311D01*
X004352Y009303D01*
X004309Y009299D01*
X004266Y009298D01*
X004222Y009302D01*
X004180Y009310D01*
X004138Y009321D01*
X004138Y009322D02*
X004174Y009306D01*
X004209Y009288D01*
X004242Y009266D01*
X004273Y009241D01*
X004301Y009214D01*
X004326Y009184D01*
X004349Y009151D01*
X004368Y009117D01*
X004385Y009081D01*
X004397Y009044D01*
X004407Y009005D01*
X004412Y008966D01*
X004414Y008927D01*
X004412Y008888D01*
X004407Y008849D01*
X004397Y008810D01*
X004385Y008773D01*
X004368Y008737D01*
X004349Y008703D01*
X004326Y008670D01*
X004301Y008640D01*
X004273Y008613D01*
X004242Y008588D01*
X004209Y008566D01*
X004174Y008548D01*
X004138Y008532D01*
X004138Y008533D02*
X004176Y008535D01*
X004214Y008534D01*
X004252Y008528D01*
X004289Y008519D01*
X004326Y008506D01*
X004360Y008490D01*
X004393Y008470D01*
X004423Y008447D01*
X004451Y008420D01*
X004476Y008392D01*
X004498Y008360D01*
X004517Y008327D01*
X004533Y008292D01*
X004544Y008256D01*
X004552Y008218D01*
X004556Y008180D01*
X004557Y008142D01*
X004553Y008104D01*
X004545Y008066D01*
X004534Y008030D01*
X004519Y007995D01*
X004501Y007961D01*
X004479Y007930D01*
X004454Y007900D01*
X004138Y008532D02*
X004174Y008548D01*
X004209Y008566D01*
X004242Y008588D01*
X004273Y008613D01*
X004301Y008640D01*
X004326Y008670D01*
X004349Y008703D01*
X004368Y008737D01*
X004385Y008773D01*
X004397Y008810D01*
X004407Y008849D01*
X004412Y008888D01*
X004414Y008927D01*
X004412Y008966D01*
X004407Y009005D01*
X004397Y009044D01*
X004385Y009081D01*
X004368Y009117D01*
X004349Y009151D01*
X004326Y009184D01*
X004301Y009214D01*
X004273Y009241D01*
X004242Y009266D01*
X004209Y009288D01*
X004174Y009306D01*
X004138Y009322D01*
X004138Y009321D02*
X004180Y009310D01*
X004222Y009302D01*
X004266Y009298D01*
X004309Y009299D01*
X004352Y009303D01*
X004395Y009311D01*
X004436Y009323D01*
X004477Y009338D01*
X004516Y009357D01*
X004553Y009380D01*
X004587Y009406D01*
X004620Y009434D01*
X004649Y009466D01*
X004676Y009500D01*
X004699Y009537D01*
X004719Y009575D01*
X004736Y009615D01*
X004749Y009657D01*
X004758Y009699D01*
X004763Y009742D01*
X004764Y009785D01*
X004761Y009829D01*
X004755Y009872D01*
X004744Y009914D01*
X004730Y009955D01*
X004712Y009994D01*
X004691Y010032D01*
X004690Y010031D02*
X004722Y009995D01*
X004756Y009961D01*
X004794Y009930D01*
X004833Y009903D01*
X004875Y009878D01*
X004918Y009857D01*
X004963Y009840D01*
X005009Y009826D01*
X005057Y009816D01*
X005105Y009809D01*
X005153Y009807D01*
X005201Y009809D01*
X005249Y009814D01*
X005297Y009823D01*
X005343Y009836D01*
X005389Y009853D01*
X005432Y009873D01*
X005474Y009897D01*
X005514Y009924D01*
X005552Y009955D01*
X005587Y009988D01*
X005620Y010024D01*
X005649Y010062D01*
X005675Y010103D01*
X005698Y010145D01*
X005717Y010190D01*
X017270Y003121D02*
X017270Y002840D01*
X017270Y002981D02*
X017690Y002981D01*
X017550Y002840D01*
X017550Y002660D02*
X017480Y002590D01*
X017410Y002660D01*
X017340Y002660D01*
X017270Y002590D01*
X017270Y002450D01*
X017340Y002380D01*
X017480Y002520D02*
X017480Y002590D01*
X017550Y002660D02*
X017620Y002660D01*
X017690Y002590D01*
X017690Y002450D01*
X017620Y002380D01*
X017620Y001921D02*
X017550Y001921D01*
X017270Y001640D01*
X017270Y001921D01*
X017620Y001921D02*
X017690Y001851D01*
X017690Y001711D01*
X017620Y001640D01*
X017620Y001460D02*
X017550Y001460D01*
X017480Y001390D01*
X017410Y001460D01*
X017340Y001460D01*
X017270Y001390D01*
X017270Y001250D01*
X017340Y001180D01*
X017480Y001320D02*
X017480Y001390D01*
X017620Y001460D02*
X017690Y001390D01*
X017690Y001250D01*
X017620Y001180D01*
D12*
X005322Y008690D02*
X005324Y008725D01*
X005330Y008760D01*
X005340Y008794D01*
X005353Y008827D01*
X005370Y008858D01*
X005391Y008887D01*
X005415Y008913D01*
X005441Y008937D01*
X005470Y008958D01*
X005501Y008975D01*
X005534Y008988D01*
X005568Y008998D01*
X005603Y009004D01*
X005638Y009006D01*
X005673Y009004D01*
X005708Y008998D01*
X005742Y008988D01*
X005775Y008975D01*
X005806Y008958D01*
X005835Y008937D01*
X005861Y008913D01*
X005885Y008887D01*
X005906Y008858D01*
X005923Y008827D01*
X005936Y008794D01*
X005946Y008760D01*
X005952Y008725D01*
X005954Y008690D01*
X005952Y008655D01*
X005946Y008620D01*
X005936Y008586D01*
X005923Y008553D01*
X005906Y008522D01*
X005885Y008493D01*
X005861Y008467D01*
X005835Y008443D01*
X005806Y008422D01*
X005775Y008405D01*
X005742Y008392D01*
X005708Y008382D01*
X005673Y008376D01*
X005638Y008374D01*
X005603Y008376D01*
X005568Y008382D01*
X005534Y008392D01*
X005501Y008405D01*
X005470Y008422D01*
X005441Y008443D01*
X005415Y008467D01*
X005391Y008493D01*
X005370Y008522D01*
X005353Y008553D01*
X005340Y008586D01*
X005330Y008620D01*
X005324Y008655D01*
X005322Y008690D01*
X004843Y008642D02*
X004845Y008673D01*
X004851Y008703D01*
X004861Y008733D01*
X004874Y008761D01*
X004891Y008787D01*
X004911Y008810D01*
X004934Y008831D01*
X004960Y008849D01*
X004987Y008863D01*
X005016Y008874D01*
X005046Y008881D01*
X005077Y008884D01*
X005108Y008883D01*
X005139Y008878D01*
X005169Y008869D01*
X005197Y008857D01*
X005223Y008840D01*
X005248Y008821D01*
X005269Y008799D01*
X005288Y008774D01*
X005303Y008747D01*
X005315Y008718D01*
X005323Y008688D01*
X005327Y008658D01*
X005327Y008626D01*
X005323Y008596D01*
X005315Y008566D01*
X005303Y008537D01*
X005288Y008510D01*
X005269Y008485D01*
X005248Y008463D01*
X005223Y008444D01*
X005197Y008427D01*
X005169Y008415D01*
X005139Y008406D01*
X005108Y008401D01*
X005077Y008400D01*
X005046Y008403D01*
X005016Y008410D01*
X004987Y008421D01*
X004960Y008435D01*
X004934Y008453D01*
X004911Y008474D01*
X004891Y008497D01*
X004874Y008523D01*
X004861Y008551D01*
X004851Y008581D01*
X004845Y008611D01*
X004843Y008642D01*
D13*
X005717Y008808D03*
D14*
X005164Y008721D03*
D15*
X005480Y009637D03*
M02*
