%
M48
M72
T01C0.0197
T02C0.0320
T03C0.0354
T04C0.0400
T05C0.0787
T06C0.1260
%
T01
X7135Y4581
X8080Y3411
X8580Y5011
X8980Y5311
X7425Y6181
X7180Y6911
X7880Y7111
X5980Y6411
X4680Y6411
X4280Y6711
X4280Y7211
X5280Y8511
X6380Y9411
X9180Y9311
X11280Y7611
X11680Y7211
X12680Y6011
X14080Y3811
X15080Y3811
X15580Y11311
X4380Y5511
T02
X11180Y5411
X12180Y5411
X13180Y5411
X14180Y5411
X14180Y8411
X13180Y8411
X12180Y8411
X11180Y8411
T03
X1580Y1811
X2580Y1811
X3580Y1811
X4580Y1811
X5580Y1811
X6580Y1811
X7580Y1811
X8580Y1811
X9580Y1811
X10580Y1811
X11580Y1811
X12580Y1811
X13580Y1811
X14580Y1811
X15580Y1811
X16580Y1811
X16580Y2811
X15580Y2811
X14580Y2811
X13580Y2811
X12580Y2811
X11580Y2811
X10580Y2811
X9580Y2811
X8580Y2811
X7580Y2811
X6580Y2811
X5580Y2811
X4580Y2811
X3580Y2811
X2580Y2811
X1580Y2811
T04
X2380Y5911
X2380Y7911
X4280Y10811
X5280Y10811
X6280Y10811
X6280Y11811
X5280Y11811
X4280Y11811
X9180Y11911
X10180Y11911
X11180Y11911
X12180Y11911
X13180Y11911
T05
X16580Y11811
X1580Y11811
T06
X1580Y9411
X1580Y4411
X16580Y4411
X16580Y9411
M30
