G75*
G70*
%OFA0B0*%
%FSLAX24Y24*%
%IPPOS*%
%LPD*%
%AMOC8*
5,1,8,0,0,1.08239X$1,22.5*
%
%ADD10R,0.0220X0.0500*%
%ADD11R,0.0500X0.0220*%
%ADD12C,0.0480*%
%ADD13R,0.0600X0.0600*%
%ADD14OC8,0.0600*%
%ADD15R,0.0472X0.0472*%
%ADD16R,0.0394X0.0433*%
%ADD17R,0.0433X0.0394*%
%ADD18R,0.0310X0.0350*%
%ADD19R,0.0500X0.0250*%
%ADD20R,0.0531X0.0531*%
%ADD21OC8,0.0531*%
%ADD22R,0.0660X0.0660*%
%ADD23OC8,0.0660*%
%ADD24C,0.0120*%
%ADD25C,0.0337*%
%ADD26C,0.1660*%
%ADD27C,0.1181*%
D10*
X005878Y005121D03*
X006193Y005121D03*
X006508Y005121D03*
X006823Y005121D03*
X007137Y005121D03*
X007452Y005121D03*
X007767Y005121D03*
X008082Y005121D03*
X008082Y008501D03*
X007767Y008501D03*
X007452Y008501D03*
X007137Y008501D03*
X006823Y008501D03*
X006508Y008501D03*
X006193Y008501D03*
X005878Y008501D03*
D11*
X005290Y007913D03*
X005290Y007598D03*
X005290Y007283D03*
X005290Y006968D03*
X005290Y006653D03*
X005290Y006338D03*
X005290Y006023D03*
X005290Y005708D03*
X008670Y005708D03*
X008670Y006023D03*
X008670Y006338D03*
X008670Y006653D03*
X008670Y006968D03*
X008670Y007283D03*
X008670Y007598D03*
X008670Y007913D03*
D12*
X011180Y008171D02*
X011180Y008651D01*
X012180Y008651D02*
X012180Y008171D01*
X013180Y008171D02*
X013180Y008651D01*
X014180Y008651D02*
X014180Y008171D01*
X014180Y005651D02*
X014180Y005171D01*
X013180Y005171D02*
X013180Y005651D01*
X012180Y005651D02*
X012180Y005171D01*
X011180Y005171D02*
X011180Y005651D01*
D13*
X011180Y011911D03*
X012180Y011911D03*
D14*
X013180Y011911D03*
X010180Y011911D03*
X009180Y011911D03*
X002380Y007911D03*
X002380Y005911D03*
D15*
X000980Y005697D03*
X000980Y006524D03*
X000980Y007297D03*
X000980Y008124D03*
D16*
X001870Y007006D03*
X002540Y007006D03*
X002945Y009611D03*
X003615Y009611D03*
X007345Y012306D03*
X008015Y012306D03*
X009980Y009946D03*
X009980Y009276D03*
X015080Y009276D03*
X015080Y009946D03*
X006515Y004111D03*
X005845Y004111D03*
D17*
X007145Y004111D03*
X007815Y004111D03*
X012680Y006576D03*
X012680Y007246D03*
X012380Y009276D03*
X012380Y009946D03*
X010580Y009946D03*
X010580Y009276D03*
X009980Y008646D03*
X009980Y007976D03*
X007615Y009211D03*
X006945Y009211D03*
X014180Y009276D03*
X014180Y009946D03*
D18*
X014240Y011311D03*
X015000Y011311D03*
X014620Y012111D03*
D19*
X008680Y004288D03*
X008680Y003934D03*
D20*
X001580Y002811D03*
D21*
X001580Y001811D03*
X002580Y001811D03*
X003580Y001811D03*
X004580Y001811D03*
X005580Y001811D03*
X006580Y001811D03*
X007580Y001811D03*
X008580Y001811D03*
X009580Y001811D03*
X010580Y001811D03*
X011580Y001811D03*
X012580Y001811D03*
X013580Y001811D03*
X014580Y001811D03*
X015580Y001811D03*
X016580Y001811D03*
X016580Y002811D03*
X015580Y002811D03*
X014580Y002811D03*
X013580Y002811D03*
X012580Y002811D03*
X011580Y002811D03*
X010580Y002811D03*
X009580Y002811D03*
X008580Y002811D03*
X007580Y002811D03*
X006580Y002811D03*
X005580Y002811D03*
X004580Y002811D03*
X003580Y002811D03*
X002580Y002811D03*
D22*
X006280Y011811D03*
D23*
X005280Y011811D03*
X004280Y011811D03*
X004280Y010811D03*
X005280Y010811D03*
X006280Y010811D03*
D24*
X005080Y009611D01*
X003615Y009611D01*
X002945Y009611D02*
X002945Y009276D01*
X001067Y007397D01*
X000980Y007297D01*
X001475Y007006D02*
X000980Y006511D01*
X000980Y006524D01*
X001475Y007006D02*
X001880Y007011D01*
X001870Y007006D01*
X002540Y007006D02*
X002540Y007751D01*
X002380Y007911D01*
X003080Y008211D02*
X004180Y009311D01*
X005780Y009311D01*
X006193Y008898D01*
X006193Y008501D01*
X005878Y008501D02*
X005878Y008813D01*
X005680Y009011D01*
X004280Y009011D01*
X003380Y008111D01*
X003380Y004611D01*
X004080Y003911D01*
X004080Y002311D01*
X003580Y001811D01*
X004580Y001811D02*
X005080Y002311D01*
X005080Y003911D01*
X003980Y005011D01*
X003980Y007356D01*
X004220Y007596D01*
X005288Y007596D01*
X005290Y007598D01*
X005288Y007911D02*
X005290Y007913D01*
X005288Y007911D02*
X004980Y008211D01*
X004880Y008311D01*
X004080Y008311D01*
X003680Y007911D01*
X003680Y004811D01*
X004580Y003911D01*
X004580Y002811D01*
X003580Y002811D02*
X003580Y003911D01*
X003080Y004411D01*
X003080Y008211D01*
X004280Y007211D02*
X004937Y006653D01*
X005290Y006653D01*
X005290Y006968D02*
X006638Y006968D01*
X007425Y006181D01*
X007780Y006311D02*
X008580Y006311D01*
X008670Y006338D01*
X008670Y006023D02*
X008193Y006023D01*
X007980Y005811D01*
X007080Y005811D01*
X006480Y006411D01*
X005980Y006411D01*
X005290Y006338D02*
X004752Y006338D01*
X004680Y006411D01*
X004567Y006023D02*
X004280Y006311D01*
X004280Y006711D01*
X004567Y006023D02*
X005290Y006023D01*
X005290Y005708D02*
X004573Y005708D01*
X004380Y005511D01*
X005878Y005121D02*
X006193Y005121D01*
X006193Y004423D01*
X006180Y004411D01*
X006180Y003711D01*
X006480Y003411D01*
X006980Y003411D01*
X007080Y003311D01*
X007080Y002311D01*
X007580Y001811D01*
X007180Y001211D02*
X008780Y001211D01*
X009080Y001511D01*
X009080Y003534D01*
X008680Y003934D01*
X008680Y004288D02*
X008757Y004288D01*
X008980Y004511D01*
X008980Y005311D01*
X009380Y005411D02*
X009080Y005711D01*
X008672Y005711D01*
X008670Y005708D01*
X009380Y005411D02*
X009380Y004111D01*
X010080Y003411D01*
X010080Y002211D01*
X009680Y001811D01*
X009580Y001811D01*
X008080Y003411D02*
X007815Y003676D01*
X007815Y004111D01*
X007815Y004376D01*
X007480Y004711D01*
X007480Y005093D01*
X007452Y005121D01*
X007480Y005148D01*
X007480Y005541D01*
X007410Y005611D01*
X006880Y005611D01*
X006823Y005553D01*
X006823Y005121D01*
X007137Y005121D02*
X007137Y004611D01*
X007135Y004608D01*
X007135Y004581D01*
X007135Y004121D01*
X007145Y004111D01*
X007180Y004111D01*
X007145Y004111D02*
X006515Y004111D01*
X006480Y004111D01*
X006508Y004118D02*
X006515Y004111D01*
X006515Y004076D01*
X006508Y004118D02*
X006508Y005121D01*
X007137Y004611D02*
X007137Y004578D01*
X007135Y004576D01*
X007137Y004119D02*
X007145Y004111D01*
X007767Y004823D02*
X008080Y004511D01*
X008457Y004511D01*
X008680Y004288D01*
X007767Y004823D02*
X007767Y005121D01*
X008082Y005121D02*
X008470Y005121D01*
X008580Y005011D01*
X009680Y004211D02*
X010180Y003711D01*
X013680Y003711D01*
X014580Y002811D01*
X015580Y002811D02*
X014080Y004311D01*
X010580Y004311D01*
X010280Y004611D01*
X010280Y006811D01*
X009808Y007283D01*
X008670Y007283D01*
X008670Y006968D02*
X009623Y006968D01*
X009980Y006611D01*
X009980Y004411D01*
X010380Y004011D01*
X013880Y004011D01*
X014080Y003811D01*
X014280Y004611D02*
X015080Y003811D01*
X014280Y004611D02*
X010780Y004611D01*
X010580Y004811D01*
X010580Y006956D01*
X009940Y007596D01*
X008672Y007596D01*
X008670Y007598D01*
X007293Y007598D01*
X006880Y008011D01*
X005780Y008011D01*
X005280Y008511D01*
X006380Y009411D02*
X006580Y009211D01*
X006945Y009211D01*
X006980Y009211D01*
X006823Y009053D01*
X006823Y008501D01*
X007765Y008498D02*
X007767Y008501D01*
X007767Y009058D01*
X007615Y009211D01*
X007615Y009476D01*
X006280Y010811D01*
X005780Y011311D02*
X007380Y011311D01*
X008080Y010611D01*
X008080Y008511D01*
X008082Y008508D01*
X008082Y008501D01*
X007749Y009146D02*
X007615Y009211D01*
X009180Y009311D02*
X009215Y009276D01*
X009980Y009276D01*
X009980Y009311D01*
X009980Y009276D02*
X010580Y009276D01*
X010615Y009311D01*
X010980Y009311D01*
X011180Y009111D01*
X011180Y008411D01*
X010180Y007811D02*
X011180Y006811D01*
X011180Y005411D01*
X012680Y006011D02*
X012670Y006506D01*
X012680Y006576D01*
X012480Y007211D02*
X011680Y007211D01*
X011880Y007611D02*
X011280Y007611D01*
X011880Y007611D02*
X012180Y007911D01*
X012180Y008411D01*
X012180Y008711D01*
X012380Y008911D01*
X012380Y009276D01*
X013180Y008711D02*
X013180Y008411D01*
X013180Y007911D01*
X012515Y007246D01*
X012480Y007211D01*
X012515Y007246D02*
X012680Y007246D01*
X014180Y008411D02*
X014180Y009276D01*
X014620Y009671D02*
X014880Y009411D01*
X015045Y009411D01*
X015080Y009276D01*
X014620Y009671D02*
X014620Y012111D01*
X014120Y012611D01*
X008280Y012611D01*
X008015Y012346D01*
X008015Y012306D01*
X007345Y012306D02*
X007345Y012346D01*
X007080Y012611D01*
X005080Y012611D01*
X004280Y011811D01*
X005280Y011811D02*
X005780Y011311D01*
X006280Y011811D02*
X007380Y011811D01*
X008670Y010521D01*
X008670Y007913D01*
X007880Y007111D02*
X007708Y007283D01*
X005290Y007283D01*
X007180Y006911D02*
X007780Y006311D01*
X008670Y006653D02*
X009437Y006653D01*
X009680Y006411D01*
X009680Y004211D01*
X007180Y001211D02*
X006580Y001811D01*
X006080Y002311D02*
X006080Y003181D01*
X005845Y003416D01*
X005845Y004046D01*
X005780Y004111D01*
X005845Y004111D01*
X005880Y004111D01*
X006080Y002311D02*
X005580Y001811D01*
X001580Y004411D02*
X000980Y005011D01*
X000980Y005697D01*
X000980Y008124D02*
X000980Y008811D01*
X001580Y009411D01*
X009180Y011011D02*
X009980Y010211D01*
X009980Y009911D01*
X010580Y009946D02*
X010580Y010211D01*
X011180Y010811D01*
X011180Y011911D01*
X012180Y011911D02*
X012345Y011746D01*
X012345Y009946D01*
X012380Y009946D01*
X012345Y009911D01*
X011580Y009911D01*
X010980Y009311D01*
X009980Y009276D02*
X009980Y008646D01*
X009980Y007976D02*
X010180Y007811D01*
X014180Y009946D02*
X014180Y011101D01*
X014240Y011311D01*
X015000Y011311D02*
X015580Y011311D01*
X015080Y011181D02*
X015000Y011311D01*
X015080Y011181D02*
X015080Y009946D01*
X009180Y011011D02*
X009180Y011911D01*
D25*
X009180Y009311D03*
X011280Y007611D03*
X011680Y007211D03*
X012680Y006011D03*
X014080Y003811D03*
X015080Y003811D03*
X008980Y005311D03*
X008580Y005011D03*
X007135Y004581D03*
X008080Y003411D03*
X007425Y006181D03*
X007180Y006911D03*
X007880Y007111D03*
X005980Y006411D03*
X004680Y006411D03*
X004280Y006711D03*
X004280Y007211D03*
X005280Y008511D03*
X006380Y009411D03*
X004380Y005511D03*
X015580Y011311D03*
D26*
X016580Y009411D03*
X016580Y004411D03*
X001580Y004411D03*
X001580Y009411D03*
D27*
X001580Y011811D03*
X016580Y011811D03*
M02*
